<svg width="364" height="52" viewBox="0 0 364 52" fill="none" xmlns="http://www.w3.org/2000/svg">
<path fill-rule="evenodd" clip-rule="evenodd" d="M25.9972 0C11.6396 0 0 11.6389 0 25.9972C0 39.1791 9.81234 50.0693 22.5313 51.7643V46.5259C22.5313 45.0492 21.6002 43.7208 20.1995 43.2515C12.8607 40.7857 7.61058 33.7716 7.80436 25.5591C8.03975 15.5606 16.1848 7.69907 26.1845 7.80046C36.149 7.90184 44.1952 16.0104 44.1952 25.9985C44.1952 26.9344 44.1224 27.8703 43.9819 28.7945C41.7542 43.4712 22.638 51.7201 22.5339 51.7656C23.6667 51.9151 24.8228 51.9944 25.9972 51.9944C40.3548 51.9944 51.9944 40.3554 51.9944 25.9972C51.9944 11.6389 40.3548 0 25.9972 0Z" fill="url(#paint0_linear_247_73311)"/>
<path d="M64.8624 35.3986L73.0515 17.2006H76.3791L84.5942 35.3986H81.0586L74.0134 18.9944H75.3652L68.346 35.3986H64.8624ZM68.632 31.1871L69.5419 28.5354H79.3688L80.2787 31.1871H68.632ZM86.5966 35.3986V16.1087H89.8463V35.3986H86.5966ZM100.637 35.5806C99.0942 35.5806 97.7424 35.2773 96.5812 34.6707C95.4373 34.0468 94.5447 33.1975 93.9035 32.123C93.2795 31.0484 92.9676 29.8265 92.9676 28.4574C92.9676 27.0708 93.2709 25.849 93.8775 24.7918C94.5014 23.7172 95.3506 22.8766 96.4252 22.27C97.5171 21.6634 98.7563 21.3601 100.143 21.3601C101.495 21.3601 102.699 21.6548 103.756 22.244C104.814 22.8333 105.646 23.6652 106.252 24.7398C106.859 25.8143 107.162 27.0795 107.162 28.5354C107.162 28.674 107.153 28.83 107.136 29.0033C107.136 29.1766 107.127 29.3413 107.11 29.4972H95.5413V27.3395H105.394L104.12 28.0154C104.138 27.2182 103.973 26.5162 103.626 25.9096C103.28 25.303 102.803 24.8264 102.197 24.4798C101.607 24.1332 100.923 23.9598 100.143 23.9598C99.3455 23.9598 98.6436 24.1332 98.037 24.4798C97.4477 24.8264 96.9798 25.3117 96.6332 25.9356C96.3039 26.5422 96.1392 27.2615 96.1392 28.0934V28.6133C96.1392 29.4453 96.3299 30.1818 96.7112 30.8231C97.0924 31.4644 97.6297 31.9583 98.323 32.3049C99.0162 32.6516 99.8135 32.8249 100.715 32.8249C101.495 32.8249 102.197 32.7036 102.82 32.4609C103.444 32.2183 103.999 31.837 104.484 31.3171L106.226 33.3188C105.602 34.0468 104.814 34.61 103.86 35.0087C102.924 35.3899 101.85 35.5806 100.637 35.5806ZM108.005 35.3986L114.114 27.4435L114.062 29.1853L108.239 21.5161H111.852L115.934 26.9755H114.556L118.664 21.5161H122.173L116.298 29.1853L116.324 27.4435L122.407 35.3986H118.742L114.452 29.6012L115.804 29.7832L111.593 35.3986H108.005ZM133.105 35.3986V32.5909L132.923 31.993V27.0795C132.923 26.1263 132.637 25.3897 132.065 24.8697C131.493 24.3325 130.626 24.0638 129.465 24.0638C128.685 24.0638 127.914 24.1852 127.151 24.4278C126.406 24.6704 125.773 25.0084 125.253 25.4417L123.98 23.0759C124.725 22.504 125.609 22.0794 126.631 21.8021C127.671 21.5074 128.746 21.3601 129.855 21.3601C131.865 21.3601 133.417 21.8454 134.508 22.816C135.618 23.7692 136.172 25.251 136.172 27.2615V35.3986H133.105ZM128.737 35.5806C127.697 35.5806 126.787 35.4073 126.007 35.0606C125.227 34.6967 124.621 34.2027 124.188 33.5788C123.772 32.9375 123.564 32.2183 123.564 31.421C123.564 30.6411 123.746 29.9392 124.11 29.3153C124.491 28.6913 125.106 28.1974 125.955 27.8334C126.805 27.4695 127.931 27.2875 129.335 27.2875H133.365V29.4453H129.569C128.46 29.4453 127.714 29.6272 127.333 29.9912C126.952 30.3378 126.761 30.7711 126.761 31.2911C126.761 31.8803 126.995 32.3483 127.463 32.6949C127.931 33.0415 128.581 33.2148 129.413 33.2148C130.21 33.2148 130.921 33.0329 131.545 32.6689C132.186 32.3049 132.645 31.7677 132.923 31.0571L133.469 33.0069C133.157 33.8214 132.593 34.454 131.779 34.9047C130.981 35.3553 129.968 35.5806 128.737 35.5806ZM147.839 35.3986V17.2006H155.795C157.77 17.2006 159.504 17.5819 160.994 18.3445C162.485 19.107 163.646 20.1643 164.478 21.5161C165.31 22.868 165.726 24.4625 165.726 26.2996C165.726 28.1194 165.31 29.7139 164.478 31.0831C163.646 32.4349 162.485 33.4921 160.994 34.2547C159.504 35.0173 157.77 35.3986 155.795 35.3986H147.839ZM151.219 32.5389H155.639C156.991 32.5389 158.169 32.2789 159.174 31.759C160.179 31.2391 160.951 30.5111 161.488 29.5752C162.043 28.6393 162.32 27.5475 162.32 26.2996C162.32 25.0344 162.043 23.9425 161.488 23.0239C160.951 22.088 160.179 21.3601 159.174 20.8402C158.169 20.3202 156.991 20.0603 155.639 20.0603H151.219V32.5389ZM175.531 35.5806C173.988 35.5806 172.637 35.2773 171.475 34.6707C170.332 34.0468 169.439 33.1975 168.798 32.123C168.174 31.0484 167.862 29.8265 167.862 28.4574C167.862 27.0708 168.165 25.849 168.772 24.7918C169.396 23.7172 170.245 22.8766 171.319 22.27C172.411 21.6634 173.651 21.3601 175.037 21.3601C176.389 21.3601 177.593 21.6548 178.651 22.244C179.708 22.8333 180.54 23.6652 181.146 24.7398C181.753 25.8143 182.056 27.0795 182.056 28.5354C182.056 28.674 182.048 28.83 182.03 29.0033C182.03 29.1766 182.022 29.3413 182.004 29.4972H170.436V27.3395H180.288L179.015 28.0154C179.032 27.2182 178.867 26.5162 178.521 25.9096C178.174 25.303 177.697 24.8264 177.091 24.4798C176.502 24.1332 175.817 23.9598 175.037 23.9598C174.24 23.9598 173.538 24.1332 172.931 24.4798C172.342 24.8264 171.874 25.3117 171.527 25.9356C171.198 26.5422 171.033 27.2615 171.033 28.0934V28.6133C171.033 29.4453 171.224 30.1818 171.605 30.8231C171.987 31.4644 172.524 31.9583 173.217 32.3049C173.91 32.6516 174.708 32.8249 175.609 32.8249C176.389 32.8249 177.091 32.7036 177.715 32.4609C178.339 32.2183 178.893 31.837 179.379 31.3171L181.12 33.3188C180.496 34.0468 179.708 34.61 178.755 35.0087C177.819 35.3899 176.744 35.5806 175.531 35.5806ZM188.615 35.3986L182.662 21.5161H186.042L191.163 33.7608H189.499L194.803 21.5161H197.922L191.969 35.3986H188.615ZM206.098 35.5806C204.555 35.5806 203.204 35.2773 202.042 34.6707C200.899 34.0468 200.006 33.1975 199.365 32.123C198.741 31.0484 198.429 29.8265 198.429 28.4574C198.429 27.0708 198.732 25.849 199.339 24.7918C199.963 23.7172 200.812 22.8766 201.886 22.27C202.978 21.6634 204.218 21.3601 205.604 21.3601C206.956 21.3601 208.16 21.6548 209.218 22.244C210.275 22.8333 211.107 23.6652 211.713 24.7398C212.32 25.8143 212.623 27.0795 212.623 28.5354C212.623 28.674 212.615 28.83 212.597 29.0033C212.597 29.1766 212.589 29.3413 212.571 29.4972H201.003V27.3395H210.855L209.582 28.0154C209.599 27.2182 209.434 26.5162 209.088 25.9096C208.741 25.303 208.264 24.8264 207.658 24.4798C207.069 24.1332 206.384 23.9598 205.604 23.9598C204.807 23.9598 204.105 24.1332 203.498 24.4798C202.909 24.8264 202.441 25.3117 202.094 25.9356C201.765 26.5422 201.6 27.2615 201.6 28.0934V28.6133C201.6 29.4453 201.791 30.1818 202.172 30.8231C202.554 31.4644 203.091 31.9583 203.784 32.3049C204.477 32.6516 205.275 32.8249 206.176 32.8249C206.956 32.8249 207.658 32.7036 208.282 32.4609C208.906 32.2183 209.46 31.837 209.946 31.3171L211.687 33.3188C211.063 34.0468 210.275 34.61 209.322 35.0087C208.386 35.3899 207.311 35.5806 206.098 35.5806ZM215.745 35.3986V16.1087H218.994V35.3986H215.745ZM229.499 35.5806C228.078 35.5806 226.813 35.2773 225.703 34.6707C224.594 34.0468 223.719 33.1975 223.078 32.123C222.436 31.0484 222.116 29.8265 222.116 28.4574C222.116 27.0708 222.436 25.849 223.078 24.7918C223.719 23.7172 224.594 22.8766 225.703 22.27C226.813 21.6634 228.078 21.3601 229.499 21.3601C230.937 21.3601 232.211 21.6634 233.32 22.27C234.447 22.8766 235.322 23.7085 235.946 24.7658C236.587 25.823 236.908 27.0535 236.908 28.4574C236.908 29.8265 236.587 31.0484 235.946 32.123C235.322 33.1975 234.447 34.0468 233.32 34.6707C232.211 35.2773 230.937 35.5806 229.499 35.5806ZM229.499 32.7989C230.296 32.7989 231.007 32.6256 231.631 32.2789C232.255 31.9323 232.74 31.4297 233.087 30.7711C233.45 30.1125 233.632 29.3413 233.632 28.4574C233.632 27.5561 233.45 26.7849 233.087 26.1436C232.74 25.485 232.255 24.9824 231.631 24.6358C231.007 24.2891 230.305 24.1158 229.525 24.1158C228.728 24.1158 228.017 24.2891 227.393 24.6358C226.787 24.9824 226.301 25.485 225.937 26.1436C225.573 26.7849 225.391 27.5561 225.391 28.4574C225.391 29.3413 225.573 30.1125 225.937 30.7711C226.301 31.4297 226.787 31.9323 227.393 32.2789C228.017 32.6256 228.719 32.7989 229.499 32.7989ZM247.711 35.5806C246.584 35.5806 245.553 35.3206 244.617 34.8007C243.699 34.2807 242.962 33.5008 242.407 32.4609C241.87 31.4037 241.601 30.0692 241.601 28.4574C241.601 26.8282 241.861 25.4937 242.381 24.4538C242.919 23.4139 243.647 22.6427 244.565 22.14C245.484 21.6201 246.532 21.3601 247.711 21.3601C249.08 21.3601 250.284 21.6548 251.324 22.244C252.382 22.8333 253.213 23.6565 253.82 24.7138C254.444 25.771 254.756 27.0188 254.756 28.4574C254.756 29.8959 254.444 31.1524 253.82 32.227C253.213 33.2842 252.382 34.1074 251.324 34.6967C250.284 35.286 249.08 35.5806 247.711 35.5806ZM240.016 40.4421V21.5161H243.109V24.7918L243.005 28.4834L243.265 32.175V40.4421H240.016ZM247.347 32.7989C248.127 32.7989 248.82 32.6256 249.427 32.2789C250.05 31.9323 250.544 31.4297 250.908 30.7711C251.272 30.1125 251.454 29.3413 251.454 28.4574C251.454 27.5561 251.272 26.7849 250.908 26.1436C250.544 25.485 250.05 24.9824 249.427 24.6358C248.82 24.2891 248.127 24.1158 247.347 24.1158C246.567 24.1158 245.865 24.2891 245.241 24.6358C244.617 24.9824 244.123 25.485 243.759 26.1436C243.395 26.7849 243.213 27.5561 243.213 28.4574C243.213 29.3413 243.395 30.1125 243.759 30.7711C244.123 31.4297 244.617 31.9323 245.241 32.2789C245.865 32.6256 246.567 32.7989 247.347 32.7989ZM264.363 35.5806C262.821 35.5806 261.469 35.2773 260.308 34.6707C259.164 34.0468 258.271 33.1975 257.63 32.123C257.006 31.0484 256.694 29.8265 256.694 28.4574C256.694 27.0708 256.997 25.849 257.604 24.7918C258.228 23.7172 259.077 22.8766 260.152 22.27C261.243 21.6634 262.483 21.3601 263.869 21.3601C265.221 21.3601 266.426 21.6548 267.483 22.244C268.54 22.8333 269.372 23.6652 269.979 24.7398C270.585 25.8143 270.888 27.0795 270.888 28.5354C270.888 28.674 270.88 28.83 270.862 29.0033C270.862 29.1766 270.854 29.3413 270.836 29.4972H259.268V27.3395H269.121L267.847 28.0154C267.864 27.2182 267.699 26.5162 267.353 25.9096C267.006 25.303 266.53 24.8264 265.923 24.4798C265.334 24.1332 264.649 23.9598 263.869 23.9598C263.072 23.9598 262.37 24.1332 261.763 24.4798C261.174 24.8264 260.706 25.3117 260.36 25.9356C260.03 26.5422 259.866 27.2615 259.866 28.0934V28.6133C259.866 29.4453 260.056 30.1818 260.438 30.8231C260.819 31.4644 261.356 31.9583 262.049 32.3049C262.743 32.6516 263.54 32.8249 264.441 32.8249C265.221 32.8249 265.923 32.7036 266.547 32.4609C267.171 32.2183 267.725 31.837 268.211 31.3171L269.953 33.3188C269.329 34.0468 268.54 34.61 267.587 35.0087C266.651 35.3899 265.576 35.5806 264.363 35.5806ZM274.01 35.3986V21.5161H277.104V25.3377L276.74 24.2198C277.156 23.2839 277.806 22.5733 278.689 22.088C279.591 21.6028 280.709 21.3601 282.043 21.3601V24.4538C281.904 24.4191 281.774 24.4018 281.653 24.4018C281.532 24.3845 281.41 24.3758 281.289 24.3758C280.059 24.3758 279.079 24.7398 278.351 25.4677C277.624 26.1783 277.26 27.2442 277.26 28.6653V35.3986H274.01ZM289.216 35.5806C288.055 35.5806 286.937 35.4333 285.863 35.1386C284.805 34.8267 283.965 34.454 283.341 34.0208L284.589 31.551C285.213 31.9496 285.958 32.2789 286.825 32.5389C287.691 32.7989 288.558 32.9289 289.424 32.9289C290.447 32.9289 291.183 32.7902 291.634 32.5129C292.102 32.2356 292.336 31.863 292.336 31.395C292.336 31.0137 292.18 30.7278 291.868 30.5371C291.556 30.3292 291.149 30.1732 290.646 30.0692C290.143 29.9652 289.58 29.8699 288.956 29.7832C288.35 29.6966 287.734 29.5839 287.11 29.4453C286.504 29.2893 285.949 29.0726 285.447 28.7953C284.944 28.5007 284.537 28.1107 284.225 27.6254C283.913 27.1402 283.757 26.4989 283.757 25.7017C283.757 24.8178 284.008 24.0552 284.511 23.4139C285.013 22.7553 285.715 22.2527 286.617 21.9061C287.535 21.5421 288.618 21.3601 289.866 21.3601C290.802 21.3601 291.747 21.4641 292.7 21.6721C293.653 21.8801 294.442 22.1747 295.066 22.556L293.818 25.0257C293.159 24.6271 292.492 24.3585 291.816 24.2198C291.157 24.0638 290.499 23.9858 289.84 23.9858C288.852 23.9858 288.116 24.1332 287.63 24.4278C287.162 24.7224 286.928 25.0951 286.928 25.5457C286.928 25.9616 287.084 26.2736 287.396 26.4816C287.708 26.6896 288.116 26.8542 288.618 26.9755C289.121 27.0968 289.676 27.2008 290.282 27.2875C290.906 27.3568 291.521 27.4695 292.128 27.6254C292.735 27.7814 293.289 27.9981 293.792 28.2754C294.312 28.5354 294.728 28.908 295.04 29.3933C295.352 29.8785 295.508 30.5111 295.508 31.2911C295.508 32.1576 295.248 32.9115 294.728 33.5528C294.225 34.1941 293.506 34.6967 292.57 35.0606C291.634 35.4073 290.516 35.5806 289.216 35.5806ZM311.444 35.6586C310.023 35.6586 308.663 35.4593 307.363 35.0606C306.063 34.6447 305.032 34.1161 304.269 33.4748L305.439 30.8491C306.167 31.421 307.068 31.8977 308.143 32.2789C309.217 32.6602 310.318 32.8509 311.444 32.8509C312.397 32.8509 313.169 32.7469 313.758 32.5389C314.347 32.3309 314.781 32.0536 315.058 31.707C315.335 31.343 315.474 30.9358 315.474 30.4851C315.474 29.9305 315.275 29.4886 314.876 29.1593C314.477 28.8127 313.957 28.544 313.316 28.3534C312.692 28.1454 311.99 27.9547 311.21 27.7814C310.448 27.6081 309.676 27.4088 308.897 27.1835C308.134 26.9409 307.432 26.6376 306.791 26.2736C306.167 25.8923 305.656 25.3897 305.257 24.7658C304.858 24.1418 304.659 23.3446 304.659 22.374C304.659 21.3861 304.919 20.4849 305.439 19.6703C305.976 18.8384 306.782 18.1798 307.857 17.6945C308.949 17.1919 310.326 16.9406 311.99 16.9406C313.082 16.9406 314.165 17.0793 315.24 17.3566C316.314 17.6339 317.25 18.0325 318.048 18.5524L316.982 21.1781C316.167 20.6929 315.326 20.3376 314.46 20.1123C313.593 19.8696 312.761 19.7483 311.964 19.7483C311.028 19.7483 310.266 19.861 309.676 20.0863C309.105 20.3116 308.68 20.6062 308.403 20.9702C308.143 21.3341 308.013 21.7501 308.013 22.218C308.013 22.7726 308.203 23.2233 308.585 23.5699C308.983 23.8992 309.494 24.1592 310.118 24.3498C310.76 24.5405 311.47 24.7311 312.25 24.9217C313.03 25.0951 313.801 25.2944 314.564 25.5197C315.344 25.745 316.046 26.0396 316.67 26.4036C317.311 26.7675 317.822 27.2615 318.204 27.8854C318.602 28.5094 318.801 29.2979 318.801 30.2512C318.801 31.2217 318.533 32.123 317.996 32.9549C317.476 33.7695 316.67 34.428 315.578 34.9307C314.486 35.4159 313.108 35.6586 311.444 35.6586ZM322.153 35.3986V17.2006H329.614C332.04 17.2006 333.938 17.7725 335.307 18.9164C336.694 20.0603 337.387 21.6461 337.387 23.6739C337.387 25.0084 337.075 26.1609 336.451 27.1315C335.827 28.0847 334.935 28.8213 333.773 29.3413C332.63 29.8439 331.252 30.0952 329.64 30.0952H324.024L325.532 28.5613V35.3986H322.153ZM334.059 35.3986L329.458 28.7953H333.071L337.699 35.3986H334.059ZM325.532 28.9253L324.024 27.3135H329.484C330.974 27.3135 332.092 26.9929 332.837 26.3516C333.6 25.7103 333.981 24.8178 333.981 23.6739C333.981 22.5127 333.6 21.6201 332.837 20.9962C332.092 20.3722 330.974 20.0603 329.484 20.0603H324.024L325.532 18.3964V28.9253ZM341.168 35.3986V17.2006H343.95L351.905 30.4851H350.449L358.274 17.2006H361.056L361.082 35.3986H357.884L357.858 22.218H358.534L351.879 33.3188H350.371L343.612 22.218H344.392V35.3986H341.168Z" fill="white"/>
<defs>
<linearGradient id="paint0_linear_247_73311" x1="25.9972" y1="0" x2="25.9972" y2="51.9944" gradientUnits="userSpaceOnUse">
<stop stop-color="#269FD5"/>
<stop offset="1" stop-color="#14536F"/>
</linearGradient>
</defs>
</svg>
